<!--?xml version="1.0" encoding="UTF-8"?-->
<svg width="100%" height="100%" viewBox="0 0 4207 4196" version="1.1" xmlns="http://www.w3.org/2000/svg" xmlns:xlink="http://www.w3.org/1999/xlink">
    <title>Frederication-Logo</title>
    <style>/***************************************************
 * Generated by SVG Artista on 3/16/2024, 12:49:48 PM
 * MIT license (https://opensource.org/licenses/MIT)
 * W. https://svgartista.net
 **************************************************/

@-webkit-keyframes animate-svg-stroke-1{0%{stroke-dashoffset:9413.7646484375px;stroke-dasharray:9413.7646484375px}100%{stroke-dashoffset:18827.529296875px;stroke-dasharray:9413.7646484375px}}@keyframes animate-svg-stroke-1{0%{stroke-dashoffset:9413.7646484375px;stroke-dasharray:9413.7646484375px}100%{stroke-dashoffset:18827.529296875px;stroke-dasharray:9413.7646484375px}}@-webkit-keyframes animate-svg-fill-1{0%{fill:transparent}100%{fill:rgb(0,0,0)}}@keyframes animate-svg-fill-1{0%{fill:transparent}100%{fill:rgb(0,0,0)}}.svg-elem-1{-webkit-animation:animate-svg-stroke-1 1s cubic-bezier(0.86,0,0.07,1) 0s both,animate-svg-fill-1 0.7s cubic-bezier(0.68,-0.55,0.265,1.55) 0.8s both;animation:animate-svg-stroke-1 1s cubic-bezier(0.86,0,0.07,1) 0s both,animate-svg-fill-1 0.7s cubic-bezier(0.68,-0.55,0.265,1.55) 0.8s both}@-webkit-keyframes animate-svg-stroke-2{0%{stroke-dashoffset:30783.390625px;stroke-dasharray:30783.390625px}100%{stroke-dashoffset:61566.78125px;stroke-dasharray:30783.390625px}}@keyframes animate-svg-stroke-2{0%{stroke-dashoffset:30783.390625px;stroke-dasharray:30783.390625px}100%{stroke-dashoffset:61566.78125px;stroke-dasharray:30783.390625px}}@-webkit-keyframes animate-svg-fill-2{0%{fill:transparent}100%{fill:rgb(19,143,46)}}@keyframes animate-svg-fill-2{0%{fill:transparent}100%{fill:rgb(19,143,46)}}.svg-elem-2{-webkit-animation:animate-svg-stroke-2 1s cubic-bezier(0.86,0,0.07,1) 0.12s both,animate-svg-fill-2 0.7s cubic-bezier(0.68,-0.55,0.265,1.55) 0.9s both;animation:animate-svg-stroke-2 1s cubic-bezier(0.86,0,0.07,1) 0.12s both,animate-svg-fill-2 0.7s cubic-bezier(0.68,-0.55,0.265,1.55) 0.9s both}</style>
    <g id="Frederication-Logo" stroke="none" stroke-width="1" fill="none" fill-rule="evenodd">
        <g id="Set" transform="translate(0.1961, 0.4902)" fill-rule="nonzero">
            <rect id="矩形" fill-opacity="0" fill="#000000" x="0" y="0" width="2352.94118" height="2352.94118" class="svg-elem-1"></rect>
            <g id="图层_1" transform="translate(56.4703, 44.7059)" fill="#138F2E" stroke="#138F2E" stroke-width="10">
                <path d="M2036.47084,0 C911.764959,0 0.000126318979,911.764706 0.000126318979,2036.47059 C-0.391904143,3161.17647 911.764959,4072.94118 2036.47084,4072.94118 C3161.17672,4072.94118 4072.94143,3161.17647 4072.94143,2036.47059 C4072.94143,911.764706 3160.78457,0 2036.47084,0 Z M2260.78457,531.764706 C2651.3728,531.764706 2996.07868,727.45098 3202.74535,1025.88235 C2996.07868,907.843137 2757.25515,840 2502.35319,840 C1847.45123,840 1296.47084,1285.88235 1136.07868,1890.19608 C1123.13751,1821.17647 1115.6863,1750.19608 1115.6863,1677.2549 C1115.29437,1044.70588 1628.23555,531.764706 2260.78457,531.764706 Z M3234.51006,3261.96078 C2933.33359,3556.86275 2521.17672,3739.21569 2065.88261,3739.21569 C1143.52966,3739.21569 395.686527,2991.37255 395.686527,2069.01961 C395.686527,1621.56863 572.157115,1215.68627 858.431625,915.686275 C738.039468,1128.23529 669.019861,1373.72549 669.019861,1635.29412 C669.019861,2220.39216 1012.54927,2724.70588 1509.01986,2958.43137 C1443.52966,2820 1405.88261,2665.88235 1405.88261,2503.13725 C1405.88261,1912.15686 1884.70614,1433.33333 2475.68653,1433.33333 C3066.66692,1433.33333 3545.49045,1912.54902 3545.49045,2503.13725 C3545.49045,2799.60784 3425.09829,3067.84314 3230.19633,3261.56863 C3232.15712,3261.56863 3232.94143,3261.96078 3234.51006,3261.96078 Z" id="形状" class="svg-elem-2"></path>
            </g>
        </g>
    </g>
</svg>